<?xml version="1.0" encoding="UTF-8" standalone="no"?>
<!-- Created with Inkscape (http://www.inkscape.org/) -->

<svg
   xmlns:dc="http://purl.org/dc/elements/1.1/"
   xmlns:cc="http://creativecommons.org/ns#"
   xmlns:rdf="http://www.w3.org/1999/02/22-rdf-syntax-ns#"
   xmlns:svg="http://www.w3.org/2000/svg"
   xmlns="http://www.w3.org/2000/svg"
   xmlns:sodipodi="http://sodipodi.sourceforge.net/DTD/sodipodi-0.dtd"
   xmlns:inkscape="http://www.inkscape.org/namespaces/inkscape"
   width="62.01947mm"
   height="17.372326mm"
   viewBox="0 0 62.01947 17.372326"
   version="1.1"
   id="svg8"
   inkscape:version="0.92.4 (5da689c313, 2019-01-14)"
   sodipodi:docname="elaspix_logo.svg">
  <defs
     id="defs2" />
  <sodipodi:namedview
     id="base"
     pagecolor="#ffffff"
     bordercolor="#666666"
     borderopacity="1.0"
     inkscape:pageopacity="0.0"
     inkscape:pageshadow="2"
     inkscape:zoom="1.979899"
     inkscape:cx="89.233975"
     inkscape:cy="-51.615449"
     inkscape:document-units="mm"
     inkscape:current-layer="g842"
     showgrid="false"
     inkscape:window-width="1839"
     inkscape:window-height="1053"
     inkscape:window-x="388"
     inkscape:window-y="1431"
     inkscape:window-maximized="1"
     fit-margin-top="0"
     fit-margin-left="0"
     fit-margin-right="0"
     fit-margin-bottom="0" />
  <metadata
     id="metadata5">
    <rdf:RDF>
      <cc:Work
         rdf:about="">
        <dc:format>image/svg+xml</dc:format>
        <dc:type
           rdf:resource="http://purl.org/dc/dcmitype/StillImage" />
        <dc:title></dc:title>
      </cc:Work>
    </rdf:RDF>
  </metadata>
  <g
     inkscape:label="Ebene 1"
     inkscape:groupmode="layer"
     id="layer1"
     transform="translate(-75.11483,-52.328178)">
    <g
       id="g842">
      <g
         id="text817"
         style="font-style:normal;font-weight:normal;font-size:18.52083397px;line-height:125%;font-family:sans-serif;letter-spacing:0px;word-spacing:0px;fill:#309aff;fill-opacity:1;stroke:none;stroke-width:0.26458332px;stroke-linecap:butt;stroke-linejoin:miter;stroke-opacity:1"
         aria-label="elaspix">
        <path
           id="path819"
           style="font-style:normal;font-variant:normal;font-weight:normal;font-stretch:normal;font-family:'Arial Rounded MT Bold';-inkscape-font-specification:'Arial Rounded MT Bold, ';fill:#309aff;fill-opacity:1;stroke-width:0.26458332px"
           d="m 82.467095,61.624768 h -4.829163 q 0.009,0.841034 0.334605,1.483114 0.334605,0.64208 0.877207,0.967641 0.551646,0.325562 1.211813,0.325562 0.443125,0 0.80486,-0.09948 0.370779,-0.108521 0.714427,-0.325562 0.343648,-0.226084 0.633036,-0.479299 0.289388,-0.253214 0.7506,-0.687296 0.189911,-0.162781 0.542603,-0.162781 0.379822,0 0.61495,0.207998 0.235127,0.207997 0.235127,0.587819 0,0.334605 -0.262258,0.786774 -0.262258,0.443125 -0.795817,0.85912 -0.524516,0.406952 -1.329376,0.678254 -0.795817,0.271301 -1.835805,0.271301 -2.378408,0 -3.698741,-1.356506 -1.320333,-1.356507 -1.320333,-3.680655 0,-1.094248 0.325562,-2.025716 0.325561,-0.940511 0.949554,-1.609721 0.623993,-0.669209 1.537374,-1.021901 0.913381,-0.361735 2.025716,-0.361735 1.44694,0 2.477885,0.614949 1.039988,0.605907 1.555461,1.573548 0.515472,0.967641 0.515472,1.971456 0,0.931467 -0.533559,1.211812 -0.533559,0.271301 -1.5012,0.271301 z m -4.829163,-1.401723 h 4.476471 q -0.09043,-1.266072 -0.687297,-1.890065 -0.587819,-0.633037 -1.55546,-0.633037 -0.922425,0 -1.519287,0.64208 -0.58782,0.633036 -0.714427,1.881022 z"
           inkscape:connector-curvature="0" />
        <path
           id="path821"
           style="font-style:normal;font-variant:normal;font-weight:normal;font-stretch:normal;font-family:'Arial Rounded MT Bold';-inkscape-font-specification:'Arial Rounded MT Bold, ';fill:#309aff;fill-opacity:1;stroke-width:0.26458332px"
           d="M 86.572787,64.536735 V 53.829378 q 0,-0.741556 0.325562,-1.121378 0.334605,-0.379822 0.895294,-0.379822 0.560689,0 0.904338,0.379822 0.343648,0.370778 0.343648,1.121378 v 10.707357 q 0,0.750601 -0.352692,1.130422 -0.343648,0.370779 -0.895294,0.370779 -0.542602,0 -0.886251,-0.388865 -0.334605,-0.388865 -0.334605,-1.112336 z"
           inkscape:connector-curvature="0" />
        <path
           id="path823"
           style="font-style:normal;font-variant:normal;font-weight:normal;font-stretch:normal;font-family:'Arial Rounded MT Bold';-inkscape-font-specification:'Arial Rounded MT Bold, ';fill:#309aff;fill-opacity:1;stroke-width:0.26458332px"
           d="m 97.840834,64.645256 q -0.895294,0.69634 -1.736328,1.049032 -0.831991,0.343648 -1.871979,0.343648 -0.949555,0 -1.673025,-0.370779 -0.714426,-0.379821 -1.103292,-1.021901 -0.388865,-0.64208 -0.388865,-1.39268 0,-1.012858 0.64208,-1.727285 0.64208,-0.714426 1.763458,-0.958598 0.235128,-0.05426 1.166596,-0.244171 0.931468,-0.189911 1.591634,-0.343648 0.66921,-0.162781 1.44694,-0.388865 -0.04522,-0.976685 -0.397908,-1.428854 -0.343649,-0.461212 -1.437897,-0.461212 -0.940511,0 -1.41981,0.262258 -0.470256,0.262258 -0.813904,0.786774 -0.334605,0.524516 -0.479299,0.69634 -0.135651,0.162781 -0.596863,0.162781 -0.415995,0 -0.72347,-0.262258 -0.298431,-0.271302 -0.298431,-0.687297 0,-0.651123 0.461212,-1.266073 0.461212,-0.614949 1.437897,-1.012858 0.976684,-0.397908 2.432668,-0.397908 1.627808,0 2.559275,0.388865 0.931468,0.379822 1.31129,1.211812 0.388867,0.831991 0.388867,2.206584 0,0.868164 -0.009,1.47407 0,0.605907 -0.009,1.347463 0,0.69634 0.22609,1.455984 0.23512,0.7506 0.23512,0.967641 0,0.379822 -0.36173,0.69634 -0.352693,0.307475 -0.804862,0.307475 -0.379822,0 -0.7506,-0.352692 -0.370779,-0.361735 -0.786774,-1.039988 z m -0.162781,-3.572134 q -0.542602,0.198955 -1.582591,0.425039 -1.030944,0.217041 -1.428853,0.325562 -0.397909,0.09948 -0.759644,0.406952 -0.361735,0.298431 -0.361735,0.841034 0,0.560689 0.425039,0.958597 0.425039,0.388866 1.112335,0.388866 0.732514,0 1.347463,-0.316519 0.623993,-0.325561 0.913381,-0.83199 0.334605,-0.560689 0.334605,-1.844849 z"
           inkscape:connector-curvature="0" />
        <path
           id="path825"
           style="font-style:normal;font-variant:normal;font-weight:normal;font-stretch:normal;font-family:'Arial Rounded MT Bold';-inkscape-font-specification:'Arial Rounded MT Bold, ';fill:#309aff;fill-opacity:1;stroke-width:0.26458332px"
           d="m 110.54678,62.809451 q 0,1.021901 -0.49739,1.754415 -0.49739,0.72347 -1.47407,1.103291 -0.96764,0.370779 -2.36032,0.370779 -1.32938,0 -2.27893,-0.406952 -0.94956,-0.406952 -1.40172,-1.012858 -0.45217,-0.61495 -0.45217,-1.229899 0,-0.406952 0.28938,-0.69634 0.28939,-0.289388 0.73252,-0.289388 0.38886,0 0.59686,0.189911 0.208,0.189911 0.39791,0.533559 0.37982,0.660166 0.90434,0.985728 0.53356,0.325561 1.44694,0.325561 0.74155,0 1.21181,-0.325561 0.4793,-0.334605 0.4793,-0.759644 0,-0.651123 -0.49739,-0.949554 -0.48834,-0.298432 -1.61876,-0.569733 -1.27512,-0.316518 -2.07998,-0.660166 -0.79582,-0.352692 -1.27511,-0.922425 -0.4793,-0.569732 -0.4793,-1.401723 0,-0.741557 0.44312,-1.401723 0.44313,-0.660167 1.30225,-1.049032 0.86816,-0.397908 2.08902,-0.397908 0.9586,0 1.71824,0.198954 0.76869,0.198954 1.27512,0.533559 0.51547,0.334605 0.77773,0.741557 0.2713,0.406952 0.2713,0.795817 0,0.425039 -0.28939,0.69634 -0.28035,0.271301 -0.80486,0.271301 -0.37982,0 -0.65112,-0.217041 -0.26226,-0.217041 -0.60591,-0.651123 -0.28035,-0.361735 -0.66017,-0.578776 -0.37982,-0.217041 -1.03094,-0.217041 -0.66921,0 -1.11234,0.289388 -0.44312,0.280345 -0.44312,0.705383 0,0.388866 0.32556,0.64208 0.32556,0.244171 0.87721,0.406952 0.55164,0.162781 1.51928,0.397909 1.14851,0.280344 1.87198,0.669209 0.73252,0.388865 1.10329,0.922425 0.37983,0.524515 0.37983,1.202769 z"
           inkscape:connector-curvature="0" />
        <path
           id="path827"
           style="font-style:normal;font-variant:normal;font-weight:normal;font-stretch:normal;font-family:'Arial Rounded MT Bold';-inkscape-font-specification:'Arial Rounded MT Bold, ';fill:#309aff;fill-opacity:1;stroke-width:0.26458332px"
           d="m 114.93282,57.383425 v 0.298432 q 0.69634,-0.859121 1.44694,-1.25703 0.7506,-0.406952 1.70015,-0.406952 1.13947,0 2.09806,0.58782 0.9586,0.587819 1.51025,1.718241 0.56069,1.130422 0.56069,2.676839 0,1.139466 -0.32556,2.098064 -0.31652,0.949554 -0.87721,1.600677 -0.56069,0.64208 -1.32938,0.994772 -0.75964,0.343648 -1.63685,0.343648 -1.05807,0 -1.78154,-0.425039 -0.71443,-0.425038 -1.36555,-1.247986 v 3.707784 q 0,1.627808 -1.18469,1.627808 -0.69634,0 -0.92242,-0.425039 -0.22609,-0.415995 -0.22609,-1.220855 V 57.401512 q 0,-0.705383 0.30748,-1.049032 0.30747,-0.352691 0.84103,-0.352691 0.52452,0 0.85008,0.361735 0.33461,0.352691 0.33461,1.021901 z m 4.8382,3.59022 q 0,-0.976684 -0.29843,-1.673024 -0.29843,-0.705384 -0.83199,-1.076162 -0.52452,-0.379822 -1.1666,-0.379822 -1.0219,0 -1.72728,0.804861 -0.69634,0.80486 -0.69634,2.369364 0,1.474071 0.69634,2.297018 0.69634,0.813904 1.72728,0.813904 0.61495,0 1.13947,-0.352692 0.52452,-0.361735 0.84103,-1.076162 0.31652,-0.714427 0.31652,-1.727285 z"
           inkscape:connector-curvature="0" />
        <path
           id="path829"
           style="font-style:normal;font-variant:normal;font-weight:normal;font-stretch:normal;font-family:'Arial Rounded MT Bold';-inkscape-font-specification:'Arial Rounded MT Bold, ';fill:#309aff;fill-opacity:1;stroke-width:0.26458332px"
           d="m 126.69825,57.401512 v 7.135223 q 0,0.741557 -0.3527,1.121379 -0.35269,0.379822 -0.89529,0.379822 -0.5426,0 -0.88625,-0.388865 -0.33461,-0.388865 -0.33461,-1.112336 v -7.062876 q 0,-0.732514 0.33461,-1.103292 0.34365,-0.370778 0.88625,-0.370778 0.5426,0 0.89529,0.370778 0.3527,0.370778 0.3527,1.030945 z m -1.22086,-2.550232 q -0.51547,0 -0.88625,-0.316518 -0.36174,-0.316518 -0.36174,-0.895295 0,-0.524515 0.37078,-0.85912 0.37982,-0.343649 0.87721,-0.343649 0.4793,0 0.85008,0.307475 0.37078,0.307475 0.37078,0.895294 0,0.569733 -0.36174,0.895295 -0.36173,0.316518 -0.85912,0.316518 z"
           inkscape:connector-curvature="0" />
        <path
           id="path831"
           style="font-style:normal;font-variant:normal;font-weight:normal;font-stretch:normal;font-family:'Arial Rounded MT Bold';-inkscape-font-specification:'Arial Rounded MT Bold, ';fill:#309aff;fill-opacity:1;stroke-width:0.26458332px"
           d="m 134.6112,65.016034 -1.79059,-2.631622 -1.8358,2.631622 q -0.39791,0.551646 -0.67826,0.786774 -0.2713,0.235128 -0.69634,0.235128 -0.47025,0 -0.80486,-0.289388 -0.32556,-0.298432 -0.32556,-0.678253 0,-0.388865 0.50643,-1.112336 l 2.23372,-3.201355 -1.9805,-2.667796 q -0.51548,-0.660166 -0.51548,-1.148508 0,-0.379822 0.30748,-0.660167 0.30747,-0.280344 0.80486,-0.280344 0.43408,0 0.71443,0.244171 0.28938,0.244171 0.66921,0.768687 l 1.60067,2.188497 1.55546,-2.188497 q 0.38887,-0.542603 0.66921,-0.777731 0.28939,-0.235127 0.71443,-0.235127 0.48834,0 0.80486,0.280344 0.32556,0.271302 0.32556,0.660167 0,0.280344 -0.13565,0.542602 -0.12661,0.253215 -0.39791,0.605906 l -1.9805,2.667796 2.23372,3.201355 q 0.52451,0.750601 0.52451,1.130422 0,0.388866 -0.32556,0.66921 -0.32556,0.280345 -0.80486,0.280345 -0.42504,0 -0.72347,-0.244171 -0.28939,-0.244171 -0.66921,-0.777731 z"
           inkscape:connector-curvature="0" />
      </g>
    </g>
  </g>
</svg>
