<?xml version="1.0" encoding="UTF-8" standalone="no"?>
<!DOCTYPE svg PUBLIC "-//W3C//DTD SVG 1.1//EN" "http://www.w3.org/Graphics/SVG/1.1/DTD/svg11.dtd">
<svg width="16" height="16" viewBox="0 0 16 16" version="1.1" xmlns="http://www.w3.org/2000/svg" xmlns:xlink="http://www.w3.org/1999/xlink" xml:space="preserve" xmlns:serif="http://www.serif.com/" style="fill-rule:evenodd;clip-rule:evenodd;stroke-linejoin:round;stroke-miterlimit:2;">
    <path d="M9.5,13C9.5,13.823 8.823,14.5 8,14.5C7.177,14.5 6.5,13.823 6.5,13C6.5,12.177 7.177,11.5 8,11.5C8.823,11.5 9.5,12.177 9.5,13ZM9.5,8C9.5,8.823 8.823,9.5 8,9.5C7.177,9.5 6.5,8.823 6.5,8C6.5,7.177 7.177,6.5 8,6.5C8.823,6.5 9.5,7.177 9.5,8ZM9.5,3C9.5,3.823 8.823,4.5 8,4.5C7.177,4.5 6.5,3.823 6.5,3C6.5,2.177 7.177,1.5 8,1.5C8.823,1.5 9.5,2.177 9.5,3Z" style="fill:rgb(156,159,163);fill-rule:nonzero;"/>
</svg>
